<svg width="17" height="17" viewBox="0 0 17 17" fill="none" xmlns="http://www.w3.org/2000/svg">
<path fill-rule="evenodd" clip-rule="evenodd" d="M8.27145 1.14645C8.46671 0.951185 8.78329 0.951184 8.97855 1.14645L12.5669 4.73484C12.811 4.97891 12.811 5.37464 12.5669 5.61872C12.3229 5.8628 11.9271 5.8628 11.6831 5.61872L9.25 3.18566V10.6768C9.25 11.022 8.97018 11.3018 8.625 11.3018C8.27982 11.3018 8 11.022 8 10.6768V3.18566L5.56694 5.61872C5.32286 5.8628 4.92714 5.8628 4.68306 5.61872C4.43898 5.37464 4.43898 4.97891 4.68306 4.73484L8.27145 1.14645ZM1.625 9.05178C1.97018 9.05178 2.25 9.3316 2.25 9.67678V13.6768C2.25 14.16 2.64175 14.5518 3.125 14.5518H14.125C14.6082 14.5518 15 14.16 15 13.6768V9.67678C15 9.3316 15.2798 9.05178 15.625 9.05178C15.9702 9.05178 16.25 9.3316 16.25 9.67678V13.6768C16.25 14.8504 15.2986 15.8018 14.125 15.8018H3.125C1.9514 15.8018 1 14.8504 1 13.6768V9.67678C1 9.3316 1.27982 9.05178 1.625 9.05178Z" fill="#687684" stroke="black" stroke-linecap="round"/>
</svg>
