<svg width="167" height="136" viewBox="0 0 167 136" fill="none" xmlns="http://www.w3.org/2000/svg">
<path d="M52.5316 136C33.9071 136.018 15.6709 130.667 0 120.587C2.71452 120.902 5.44514 121.059 8.17786 121.055C23.608 121.079 38.5983 115.908 50.7397 106.37C43.5877 106.234 36.6571 103.862 30.9167 99.5873C25.1764 95.3124 20.9132 89.3479 18.7233 82.5275C20.8455 82.9388 23.002 83.1464 25.1635 83.1475C28.2156 83.148 31.2541 82.742 34.1993 81.9401C26.4419 80.3709 19.4654 76.1623 14.4533 70.0282C9.44118 63.8941 6.70214 56.2123 6.70085 48.286C6.70085 48.1337 6.70085 47.9923 6.70085 47.8509C11.4576 50.5029 16.779 51.9761 22.2203 52.1474C14.9643 47.2928 9.82945 39.85 7.86201 31.3354C5.89457 22.8209 7.24261 13.8754 11.6315 6.32166C20.2289 16.9259 30.9564 25.6014 43.1177 31.7852C55.2791 37.969 68.6026 41.523 82.2239 42.2165C80.4897 34.8467 81.2362 27.1095 84.3472 20.2085C87.4582 13.3076 92.7592 7.63002 99.4256 4.059C106.092 0.487988 113.75 -0.776178 121.208 0.463181C128.666 1.70254 135.506 5.37593 140.664 10.9118C148.323 9.38684 155.668 6.56943 162.384 2.57989C159.825 10.5286 154.473 17.277 147.321 21.5715C154.114 20.7492 160.747 18.9161 167 16.1329C162.397 23.0274 156.605 29.0459 149.895 33.9063C149.971 35.3747 150.003 36.854 150.003 38.3442C150.003 83.6914 115.522 136 52.4882 136" fill="#1DA1F2"/>
</svg>
